<?xml version="1.0" encoding="UTF-8" standalone="no"?>
<!-- Created with Inkscape (http://www.inkscape.org/) -->

<svg
   width="40mm"
   height="40mm"
   viewBox="0 0 40 40.000001"
   version="1.1"
   id="svg5"
   xmlns="http://www.w3.org/2000/svg"
   xmlns:svg="http://www.w3.org/2000/svg">
  <defs
     id="defs2" />
  <g
     id="layer3">
    <path
       style="fill:#11012f;fill-opacity:1;stroke:none;stroke-width:0.727094px;stroke-linecap:butt;stroke-linejoin:miter;stroke-opacity:1"
       d="M 39.178504,39.178748 H 0.08057283 L 0.18346683,1.6903541 C 1.0242658,1.1550104 1.8891138,0.63928107 2.7776878,0.14382526 l 35.9363752,0.00549 z"
       id="path9519" />
    <path
       style="fill:#01113e;fill-opacity:1;stroke:none;stroke-width:0.542047px;stroke-linecap:butt;stroke-linejoin:miter;stroke-opacity:1"
       d="M 39.178505,39.178749 H 0.64825983 c 0,-18.987057 9.37679617,-34.0438099 25.81825917,-38.88642123 L 38.82943,0.2115903 Z"
       id="path9519-5" />
    <path
       style="fill:#011a4c;fill-opacity:1;stroke:none;stroke-width:0.334368px;stroke-linecap:butt;stroke-linejoin:miter;stroke-opacity:1"
       d="M 39.178504,39.178748 H 11.181211 c 0,-12.214864 10.282775,-21.323538 27.733464,-21.225073 z"
       id="path9519-5-8" />
    <path
       style="fill:#fffcd1;fill-opacity:1;stroke:none;stroke-width:0.264583px;stroke-linecap:butt;stroke-linejoin:miter;stroke-opacity:1"
       d="M 0.14314783,11.585404 C 7.7579708,10.242517 10.901186,7.0416647 12.083026,0.03695919 l 1.292828,0.02175119 C 15.034265,8.8937833 20.668124,11.426081 38.95781,12.115889 l 0.0217,0.529668 c -20.893496,1.023874 -25.109082,5.67032 -25.956528,26.542195 l -0.437511,0.0244 C 11.918604,21.510809 9.3791508,15.440536 0.15748683,13.418602 Z"
       id="path6028" />
  </g>
  <g
     id="layer1"
     style="display:inline">
    <rect
       style="opacity:1;mix-blend-mode:normal;fill:none;stroke:#dfa706;stroke-width:1.642;stroke-linecap:round;stroke-linejoin:round;stroke-miterlimit:4;stroke-dasharray:none;stroke-opacity:1;paint-order:stroke fill markers"
       id="rect846"
       width="38.357506"
       height="38.357506"
       x="0.82099998"
       y="0.82124501" />
  </g>
</svg>
