<?xml version="1.0" encoding="UTF-8" standalone="no"?>
<!-- Created with Inkscape (http://www.inkscape.org/) -->

<svg
   width="120mm"
   height="40mm"
   viewBox="0 0 120 40.000001"
   version="1.1"
   id="svg5"
   inkscape:version="1.1 (c68e22c387, 2021-05-23)"
   sodipodi:docname="星天.svg"
   xmlns:inkscape="http://www.inkscape.org/namespaces/inkscape"
   xmlns:sodipodi="http://sodipodi.sourceforge.net/DTD/sodipodi-0.dtd"
   xmlns="http://www.w3.org/2000/svg"
   xmlns:svg="http://www.w3.org/2000/svg">
  <sodipodi:namedview
     id="namedview7"
     pagecolor="#505050"
     bordercolor="#eeeeee"
     borderopacity="1"
     inkscape:pageshadow="0"
     inkscape:pageopacity="0"
     inkscape:pagecheckerboard="0"
     inkscape:document-units="mm"
     showgrid="false"
     width="40mm"
     inkscape:zoom="1.33"
     inkscape:cx="195.48872"
     inkscape:cy="89.473684"
     inkscape:window-width="1920"
     inkscape:window-height="1009"
     inkscape:window-x="-8"
     inkscape:window-y="-8"
     inkscape:window-maximized="1"
     inkscape:current-layer="text19125"
     scale-x="1" />
  <defs
     id="defs2" />
  <g
     inkscape:groupmode="layer"
     id="layer3"
     inkscape:label="天"
     sodipodi:insensitive="true">
    <path
       style="fill:#11012f;fill-opacity:1;stroke:none;stroke-width:0.727094px;stroke-linecap:butt;stroke-linejoin:miter;stroke-opacity:1"
       d="m 39.178748,39.178748 h -59.568177 c 0,-27.146991 21.8780486,-47.3906153 59.006844,-47.1717805 z"
       id="path9519"
       sodipodi:nodetypes="cccc" />
    <path
       style="fill:#01113e;fill-opacity:1;stroke:none;stroke-width:0.542047px;stroke-linecap:butt;stroke-linejoin:miter;stroke-opacity:1"
       d="M 39.178749,39.178749 H 0.64850381 c 0,-23.325365 14.15129119,-40.7191869 38.16716019,-40.5311577 z"
       id="path9519-5"
       sodipodi:nodetypes="cccc" />
    <path
       style="fill:#011a4c;fill-opacity:1;stroke:none;stroke-width:0.334368px;stroke-linecap:butt;stroke-linejoin:miter;stroke-opacity:1"
       d="M 39.178748,39.178748 H 11.181455 c 0,-12.214864 10.282775,-21.323538 27.733464,-21.225073 z"
       id="path9519-5-8"
       sodipodi:nodetypes="cccc" />
  </g>
  <g
     inkscape:groupmode="layer"
     id="layer2"
     inkscape:label="星">
    <path
       style="fill:#fffcd1;fill-opacity:1;stroke:none;stroke-width:0.264583px;stroke-linecap:butt;stroke-linejoin:miter;stroke-opacity:1"
       d="m -14.344776,12.450181 c 23.7080876,0 27.065612,-3.2776924 27.065612,-23.005771 0,17.6321841 2.071853,21.760066 26.237218,22.671479 l 0.0217,0.529668 c -20.893496,1.023874 -25.109082,5.67032 -25.956528,26.542195 l -0.437511,0.0244 C 11.653244,14.460605 7.0594844,12.450181 -14.344776,12.450181 Z"
       id="path6028"
       sodipodi:nodetypes="ccccccc" />
    <g
       aria-label="星   天"
       id="text19125"
       style="font-weight:300;font-size:16.9333px;line-height:1.25;font-family:'Source Han Sans SC';-inkscape-font-specification:'Source Han Sans SC,  weight=250';fill:#fffcd1;stroke-width:0.264583">
      <path
         d="m 60.360602,10.053797 h 9.465715 v 1.879597 h -9.465715 z m 0,-2.5230618 h 9.465715 V 9.3764649 H 60.360602 Z M 59.564737,6.8195366 V 12.644592 H 70.656048 V 6.8195366 Z m 1.219198,5.9605224 c -0.728132,1.557863 -1.930397,3.064927 -3.217327,4.063992 0.220132,0.118533 0.541865,0.372532 0.694265,0.507999 0.626532,-0.541866 1.269997,-1.219198 1.84573,-1.981197 h 4.521191 v 1.913463 h -4.961457 v 0.728132 h 4.961457 v 2.269062 h -6.891853 v 0.745066 H 72.383245 V 20.28151 h -6.92572 v -2.269062 h 5.198523 v -0.728132 h -5.198523 v -1.913463 h 5.875855 v -0.745065 h -5.875855 v -1.574797 h -0.829731 v 1.574797 h -3.979326 c 0.355599,-0.524932 0.677332,-1.066798 0.948265,-1.625597 z"
         id="path5909" />
      <path
         d="m 83.779255,12.746192 v 0.829732 h 6.502387 c -0.558798,2.539995 -2.201329,5.198523 -6.824119,7.213585 0.186266,0.169333 0.423332,0.474133 0.541865,0.677332 4.690524,-2.065862 6.434654,-4.842923 7.07812,-7.501451 1.28693,3.657592 3.708392,6.31612 7.230519,7.501451 0.118533,-0.237066 0.355599,-0.541865 0.541865,-0.711198 -3.505193,-1.066798 -5.909721,-3.657593 -7.095052,-7.179719 h 6.756386 V 12.746192 H 91.29764 c 0.1016,-0.778932 0.118534,-1.54093 0.118534,-2.269063 V 8.2927337 h 6.333054 V 7.4799353 H 84.354987 v 0.8127984 h 6.214522 v 2.1674623 c 0,0.728132 -0.01693,1.490131 -0.135467,2.285996 z"
         id="path5911" />
    </g>
    <g
       aria-label="ASTRALWELKIN"
       id="text33940"
       style="font-weight:200;font-size:7.76111px;line-height:1.25;font-family:Urbanist;-inkscape-font-specification:'Urbanist, Ultra-Light';fill:#fffcd1;stroke-width:0.264583"
       transform="translate(0,0.52916667)">
      <path
         d="m 54.821113,26.865525 h 0.457906 l 1.979083,5.432777 H 56.904971 L 56.443185,31.02936 h -2.782358 l -0.461786,1.268942 H 52.84203 Z m -1.039989,3.830108 h 2.537883 l -1.268941,-3.480858 z"
         id="path5866" />
      <path
         d="m 59.508805,32.399196 q -0.426861,0 -0.830438,-0.131939 -0.399697,-0.131939 -0.6985,-0.376414 -0.298803,-0.244475 -0.4191,-0.585963 l 0.310444,-0.120298 q 0.100895,0.287161 0.357011,0.48507 0.259997,0.194028 0.597606,0.294922 0.341489,0.100894 0.682977,0.100894 0.41522,0 0.776111,-0.1397 0.360892,-0.14358 0.582084,-0.403577 0.225072,-0.259997 0.225072,-0.609247 0,-0.357011 -0.232833,-0.582084 -0.228953,-0.228952 -0.593725,-0.360891 -0.360892,-0.13582 -0.756709,-0.20567 -0.547158,-0.100894 -0.98178,-0.256116 -0.430742,-0.159103 -0.682978,-0.446264 -0.248355,-0.291042 -0.248355,-0.783872 0,-0.454025 0.267758,-0.787753 0.267758,-0.333728 0.702381,-0.516114 0.434622,-0.182386 0.942974,-0.182386 0.407459,0 0.803275,0.128059 0.399697,0.124177 0.706261,0.372533 0.306564,0.244475 0.442384,0.601486 l -0.318206,0.112536 q -0.100894,-0.287161 -0.360892,-0.481189 -0.256116,-0.197908 -0.593724,-0.298803 -0.337609,-0.100894 -0.679098,-0.100894 -0.419099,0 -0.779991,0.143581 -0.360892,0.14358 -0.582083,0.403577 -0.217311,0.259997 -0.217311,0.605367 0,0.395816 0.205669,0.613127 0.205669,0.217312 0.56268,0.329848 0.357012,0.108655 0.811036,0.194027 0.504473,0.09313 0.942975,0.27552 0.438503,0.178505 0.706261,0.481189 0.267759,0.298802 0.267759,0.741186 0,0.454025 -0.267759,0.787752 -0.267758,0.333728 -0.706261,0.516114 -0.434622,0.182386 -0.942975,0.182386 z"
         id="path5868" />
      <path
         d="m 66.194984,26.865525 v 0.333728 h -1.967441 v 5.099049 h -0.333728 v -5.099049 h -1.95968 v -0.333728 z"
         id="path5870" />
      <path
         d="m 66.971093,32.298302 v -5.432777 h 1.719086 q 0.430741,0 0.776111,0.205669 0.345369,0.20567 0.547158,0.562681 0.205669,0.35313 0.205669,0.795513 0,0.41522 -0.178505,0.748948 -0.178506,0.333727 -0.485069,0.543277 -0.302684,0.20955 -0.675217,0.252236 l 1.342672,2.324453 h -0.388055 l -1.338792,-2.30505 h -1.19133 v 2.30505 z m 0.333728,-2.638778 h 1.369836 q 0.333727,0 0.609247,-0.159102 0.275519,-0.162984 0.438502,-0.442384 0.162984,-0.28328 0.162984,-0.636411 0,-0.357011 -0.162984,-0.636411 -0.162983,-0.28328 -0.438502,-0.442383 -0.27552,-0.162983 -0.609247,-0.162983 h -1.369836 z"
         id="path5872" />
      <path
         d="m 72.896682,26.865525 h 0.457906 l 1.979083,5.432777 H 74.98054 L 74.518754,31.02936 h -2.782358 l -0.461786,1.268942 h -0.357011 z m -1.039988,3.830108 h 2.537882 l -1.268941,-3.480858 z"
         id="path5874" />
      <path
         d="m 76.094239,32.298302 v -5.432777 h 0.333728 v 5.099049 h 2.619374 v 0.333728 z"
         id="path5876" />
      <path
         d="m 80.199853,32.298302 -1.389239,-5.432777 h 0.341489 l 1.253419,4.905021 1.249539,-4.905021 h 0.2794 l 1.253419,4.905021 1.249539,-4.905021 h 0.341489 l -1.381478,5.432777 h -0.4191 L 81.794761,27.6688 80.611192,32.298302 Z"
         id="path5878" />
      <path
         d="m 85.477389,32.298302 v -5.432777 h 3.255786 v 0.333728 h -2.922058 v 2.021769 h 2.460272 v 0.333727 h -2.460272 v 2.409825 h 2.922058 v 0.333728 z"
         id="path5880" />
      <path
         d="m 89.65673,32.298302 v -5.432777 h 0.333727 v 5.099049 h 2.619375 v 0.333728 z"
         id="path5882" />
      <path
         d="m 96.703813,32.298302 h -0.426861 l -1.916994,-2.599972 -0.562681,0.679097 v 1.920875 h -0.333728 v -5.432777 h 0.333728 v 2.988027 l 2.506839,-2.988027 h 0.434622 l -2.157589,2.568927 z"
         id="path5884" />
      <path
         d="m 97.573042,32.298302 v -5.432777 h 0.333728 v 5.432777 z"
         id="path5886" />
      <path
         d="m 98.954509,32.298302 v -5.432777 h 0.364772 l 3.162649,4.831291 v -4.831291 h 0.33373 v 5.432777 h -0.35701 l -3.170414,-4.831291 v 4.831291 z"
         id="path5888" />
    </g>
  </g>
  <g
     inkscape:label="框"
     inkscape:groupmode="layer"
     id="layer1"
     sodipodi:insensitive="true">
    <rect
       style="opacity:1;mix-blend-mode:normal;fill:none;stroke:#dfa706;stroke-width:1.642;stroke-linecap:round;stroke-linejoin:round;stroke-miterlimit:4;stroke-dasharray:none;stroke-opacity:1;paint-order:stroke fill markers"
       id="rect846"
       width="38.357506"
       height="38.357506"
       x="0.82124501"
       y="0.82124501" />
  </g>
</svg>
